<?xml version="1.0" encoding="utf-8"?>
<!-- Generator: Adobe Illustrator 25.0.0, SVG Export Plug-In . SVG Version: 6.00 Build 0)  -->
<svg version="1.1" id="Layer_1" xmlns="http://www.w3.org/2000/svg" xmlns:xlink="http://www.w3.org/1999/xlink" x="0px" y="0px"
	 viewBox="-5.669 -16.061 38.5 33.082" enable-background="new -5.669 -16.061 38.5 33.082" xml:space="preserve">
<circle fill="#FFFFFF" cx="13.955" cy="0.48" r="15.207"/>
<g>
	<path fill="#004E5F" d="M21.065,6.359c0.245,0.282,0.504,0.508,0.777,0.661c0.273,0.159,0.589,0.221,0.939,0.187
		c0.062-0.01,0.1,0.048,0.124,0.172c0.02,0.125,0.02,0.282,0,0.475c-0.019,0.191-0.062,0.402-0.124,0.627
		c-0.062,0.226-0.149,0.441-0.259,0.647c-0.115,0.202-0.249,0.375-0.408,0.519c-0.158,0.143-0.346,0.225-0.556,0.239
		c-0.355,0.039-0.676-0.058-0.973-0.288c-0.082-0.062-0.168-0.134-0.25-0.215l-0.005-0.005l-0.004-0.006l-0.009-0.009l0,0
		l-0.01-0.005l-0.005-0.009h-0.005l-0.009-0.01V9.334L20.279,9.33l-0.006-0.005L20.269,9.32L20.265,9.31l-0.029-0.029V9.276
		l-0.009-0.008h-0.006l-0.005-0.01l-0.004-0.005l-0.006-0.005l-0.009-0.009l0,0l-0.009-0.009l-0.005-0.006l-0.006-0.005
		l-0.004-0.008L20.159,9.2V9.195L20.13,9.166l0,0l-0.008-0.009V9.153l-0.01-0.006l-0.005-0.009V9.132l-0.009-0.008h-0.005
		l-0.005-0.009l-0.005-0.006l-0.006-0.005L20.068,9.09l0,0l-0.008-0.009l-0.006-0.005L20.049,9.07l-0.005-0.008l-0.006-0.006
		L20.03,9.047l0,0L20.02,9.037l-0.006-0.009L20.01,9.023l-0.004-0.01l0,0l-0.01-0.008l-0.005-0.006l-0.006-0.009l-0.008-0.01
		l-0.009-0.014l0,0l-0.01-0.009l-0.005-0.008l-0.019-0.029h-0.005l-0.006-0.009l-0.008-0.01V8.893l-0.01-0.009V8.879l-0.01-0.009
		l-0.003-0.006L19.886,8.86l-0.009-0.015l0,0l-0.006-0.009l-0.005-0.005l-0.004-0.009l-0.009-0.01l0,0l-0.01-0.013V8.793
		l-0.009-0.009l-0.005-0.005l-0.005-0.006L19.818,8.76l0,0l-0.009-0.015l-0.005-0.004L19.8,8.735l-0.01-0.014l0,0l-0.01-0.014l0,0
		l-0.008-0.01l-0.005-0.009V8.683l-0.01-0.015c-0.263-0.393-0.518-0.848-0.767-1.361c-0.518-1.059-1.035-2.118-1.658-3.125
		c-0.311-0.499-0.657-0.935-1.036-1.308c-0.379-0.374-0.806-0.657-1.28-0.857c-0.034-0.014-0.072-0.029-0.105-0.038
		C18.803,1.983,19.118,4.054,21.065,6.359L21.065,6.359z"/>
	<path fill="#2C4665" d="M10.339-2.041c-0.033-0.024-0.077-0.053-0.115-0.086c-1.947-2.08-6.066-4.112-5.601,0.896
		c0.005,0.076-0.067,0.153-0.225,0.225c-0.158,0.072-0.34,0.12-0.547,0.149C3.651-0.834,3.459-0.839,3.286-0.877
		C3.114-0.915,3.018-1.016,2.994-1.174C2.514-4.884,7.295-5.3,10.205-3.005c0.052,0.043,0.11,0.086,0.163,0.129
		C10.339-2.612,10.329-2.334,10.339-2.041L10.339-2.041z"/>
	<path fill="#2C4665" d="M16.286-5.353c-0.021,0.159-0.05,0.321-0.088,0.494c-0.039,0.172-0.095,0.35-0.177,0.537
		c-0.124,0.287-0.264,0.565-0.427,0.824C15.436-3.234,15.253-3,15.043-2.794c-0.235,0.235-0.485,0.44-0.759,0.623
		c-0.263,0.168-0.536,0.306-0.824,0.416c0.009-0.21,0.024-0.422,0.039-0.632c0.446-0.182,0.839-0.446,1.175-0.8
		c0.15-0.173,0.297-0.364,0.437-0.575c0.139-0.211,0.254-0.441,0.345-0.69c0.072-0.149,0.124-0.292,0.158-0.432
		c0.034-0.134,0.057-0.268,0.072-0.393c0.024-0.268-0.006-0.489-0.086-0.661c-0.135-0.273-0.393-0.388-0.691-0.35
		c-0.12,0.014-0.25,0.057-0.393,0.125c-0.076,0.043-0.154,0.091-0.225,0.153c-0.072,0.063-0.149,0.129-0.216,0.211
		c-1.046,0.982-1.046,4.255-1.18,5.563c-0.048,0.455-0.12,0.915-0.211,1.39c3.486-0.556,7.667-5.573,7.053-9.019
		c-0.01-0.057,0.057-0.115,0.201-0.163c0.138-0.048,0.316-0.081,0.523-0.091c0.205-0.015,0.425,0.005,0.661,0.043
		c0.234,0.043,0.437,0.125,0.609,0.249c0.168,0.125,0.288,0.297,0.356,0.518c0.233,0.743-0.907,2.731-1.29,3.364
		c-1.924,3.163-4.661,5.084-8.286,5.914c-0.475,1.993-1.74,4.139-3.447,5.309c-4.752,3.243-5.85-3.236-1.818-4.366
		c0.341-0.095,0.71-0.101,1.107-0.019C8.46,2.919,8.512,3.009,8.512,3.162c0,0.153-0.039,0.307-0.11,0.455
		C8.33,3.77,8.234,3.896,8.124,3.992c-0.115,0.096-0.23,0.096-0.345,0c-3.122-2.579-3.845,8.179,0.532,1.764
		c0.369-0.542,0.662-1.194,0.94-1.918c0.518-1.351,0.921-2.788,1.132-4.226C11.553-8.554,16.515-8.262,16.286-5.353L16.286-5.353z"
		/>
</g>
</svg>
